<svg viewBox="0 0 566.93 566.93" xmlns="http://www.w3.org/2000/svg"><g fill="#29235c"><path d="m278.63 274.87v-6.16c0-.31.09-.67.28-1.1l21.34-48.1c.06-.12.06-.23 0-.32s-.15-.14-.28-.14h-20.42c-.61 0-.92-.31-.92-.92v-5.79c0-.61.31-.92.92-.92h29.34c.61 0 .92.31.92.92v6.16c0 .25-.09.61-.28 1.1l-21.43 48.1c-.06.12-.06.23 0 .32s.15.14.28.14h20.51c.61 0 .92.31.92.92v5.79c0 .61-.31.92-.92.92h-29.34c-.61 0-.92-.31-.92-.92z"/><path d="m339.79 228.97h6.99c.61 0 .92.31.92.92v44.98c0 .61-.31.92-.92.92h-6.99c-.61 0-.92-.31-.92-.92v-2.67c0-.18-.05-.28-.14-.28s-.2.06-.32.18c-1.84 2.88-4.78 4.32-8.83 4.32-3.68 0-6.65-1.12-8.92-3.36s-3.4-5.66-3.4-10.26v-32.93c0-.61.31-.92.92-.92h6.99c.61 0 .92.31.92.92v31c0 5.27 2.08 7.91 6.25 7.91 2.08 0 3.69-.75 4.83-2.25 1.13-1.5 1.7-3.57 1.7-6.21v-30.44c0-.61.31-.92.92-.92z"/><path d="m383.43 232.47c2.85 2.82 4.28 6.53 4.28 11.13v31.27c0 .61-.31.92-.92.92h-6.99c-.61 0-.92-.31-.92-.92v-2.02c0-.12-.05-.21-.14-.28-.09-.06-.2-.03-.32.09-2.15 2.58-5.3 3.86-9.47 3.86-3.5 0-6.58-1-9.24-2.99-2.67-1.99-4-5.53-4-10.62s1.61-9.24 4.83-11.73c3.22-2.48 7.43-3.72 12.65-3.72h5.33c.24 0 .37-.12.37-.37v-2.67c0-2.58-.61-4.64-1.84-6.21-1.23-1.56-2.82-2.35-4.78-2.35-1.53 0-2.82.52-3.86 1.56s-1.66 2.39-1.84 4.05c0 .61-.31.92-.92.92h-7.45c-.61 0-.92-.31-.92-.92.31-3.92 1.87-7.11 4.69-9.57 2.82-2.45 6.31-3.68 10.49-3.68 4.48 0 8.14 1.41 10.99 4.23zm-6.94 34.31c1.59-1.35 2.39-3.25 2.39-5.7v-6.25c0-.24-.12-.37-.37-.37h-5.61c-2.45 0-4.41.66-5.89 1.98-1.47 1.32-2.21 3.23-2.21 5.75 0 2.21.55 3.86 1.66 4.97 1.1 1.1 2.58 1.66 4.41 1.66 2.15 0 4.02-.67 5.61-2.02z"/><path d="m310.41 295.42c2.91 3.4 4.37 7.86 4.37 13.38s-1.41 9.75-4.23 13.06-6.53 4.97-11.13 4.97h-8.65c-.25 0-.37.12-.37.37v26.67c0 .61-.31.92-.92.92h-6.99c-.61 0-.92-.31-.92-.92v-62.64c0-.61.31-.92.92-.92h16.46c4.72 0 8.54 1.7 11.45 5.1zm-6.76 21.43c1.53-1.93 2.3-4.55 2.3-7.86s-.77-6.05-2.3-8.05c-1.53-1.99-3.56-2.99-6.07-2.99h-6.81c-.25 0-.37.12-.37.37v21.06c0 .25.12.37.37.37h6.81c2.51 0 4.54-.97 6.07-2.9z"/><path d="m321.86 353.87v-62.54c0-.61.31-.92.92-.92h6.99c.61 0 .92.31.92.92v62.54c0 .61-.31.92-.92.92h-6.99c-.61 0-.92-.31-.92-.92z"/><path d="m365.87 311.47c2.85 2.82 4.28 6.53 4.28 11.13v31.27c0 .61-.31.92-.92.92h-6.99c-.61 0-.92-.31-.92-.92v-2.02c0-.12-.05-.21-.14-.28-.09-.06-.2-.03-.32.09-2.15 2.58-5.3 3.86-9.47 3.86-3.5 0-6.58-1-9.24-2.99-2.67-1.99-4-5.53-4-10.62s1.61-9.24 4.83-11.73c3.22-2.48 7.43-3.72 12.65-3.72h5.33c.24 0 .37-.12.37-.37v-2.67c0-2.58-.61-4.64-1.84-6.21-1.23-1.56-2.82-2.35-4.78-2.35-1.53 0-2.82.52-3.86 1.56s-1.66 2.39-1.84 4.05c0 .61-.31.92-.92.92h-7.45c-.61 0-.92-.31-.92-.92.31-3.92 1.87-7.11 4.69-9.57 2.82-2.45 6.31-3.68 10.49-3.68 4.48 0 8.14 1.41 10.99 4.23zm-6.94 34.31c1.59-1.35 2.39-3.25 2.39-5.7v-6.25c0-.24-.12-.37-.37-.37h-5.61c-2.45 0-4.41.66-5.89 1.98-1.47 1.32-2.21 3.23-2.21 5.75 0 2.21.55 3.86 1.66 4.97 1.1 1.1 2.58 1.66 4.41 1.66 2.15 0 4.02-.67 5.61-2.02z"/><path d="m382.24 351.57c-2.79-2.64-4.18-6.19-4.18-10.67v-19.04c0-4.35 1.39-7.88 4.18-10.58s6.54-4.05 11.27-4.05c3.13 0 5.87.6 8.23 1.79 2.36 1.2 4.17 2.82 5.43 4.87s1.89 4.37 1.89 6.94v1.2c0 .61-.31.92-.92.92l-6.99.28c-.61 0-.92-.31-.92-.92v-.92c0-1.78-.64-3.31-1.93-4.6s-2.88-1.93-4.78-1.93-3.56.71-4.78 2.12c-1.23 1.41-1.84 3.22-1.84 5.43v17.94c0 2.21.61 4.02 1.84 5.43s2.82 2.12 4.78 2.12 3.5-.64 4.78-1.93c1.29-1.29 1.93-2.82 1.93-4.6v-.92c0-.61.31-.92.92-.92l6.99.09c.61 0 .92.31.92.92v1.38c0 3.99-1.41 7.25-4.23 9.8s-6.59 3.82-11.31 3.82-8.48-1.32-11.27-3.95z"/><path d="m446.02 335.01h-20.79c-.25 0-.37.12-.37.37v4.97c0 2.21.61 4.02 1.84 5.43s2.82 2.12 4.78 2.12c1.72 0 3.16-.52 4.32-1.56s1.9-2.39 2.21-4.05c.18-.49.52-.74 1.01-.74l6.81.37c.31 0 .54.09.69.28.15.18.2.4.14.64-.43 3.99-1.95 7.1-4.55 9.34-2.61 2.24-6.15 3.36-10.62 3.36-4.72 0-8.48-1.32-11.27-3.95-2.79-2.64-4.18-6.16-4.18-10.58v-19.13c0-4.35 1.39-7.88 4.18-10.58s6.54-4.05 11.27-4.05 8.55 1.35 11.31 4.05 4.14 6.22 4.14 10.58v12.23c0 .61-.31.92-.92.92zm-19.32-18.03c-1.23 1.41-1.84 3.22-1.84 5.43v4.87c0 .25.12.37.37.37h12.6c.24 0 .37-.12.37-.37v-4.87c0-2.21-.61-4.02-1.84-5.43s-2.85-2.12-4.87-2.12-3.56.71-4.78 2.12z"/></g><path d="m179.72 211.4c-19.06 0-36.03 8.92-46.96 22.82h93.92c-10.94-13.9-27.91-22.82-46.96-22.82z" fill="#009fe3"/><path d="m239.06 264.16-65.65 65.65h32.03l18.58-18.58c9.6-10.6 15.45-24.66 15.45-40.09 0-2.36-.14-4.69-.4-6.98z" fill="#009fe3"/><path d="m179.72 355.52 11.61-11.6h-23.22z" fill="#009fe3"/><path d="m202.62 271.14c0-12-9.23-21.84-20.99-22.81h-57.13c-2.91 7.03-4.52 14.74-4.52 22.82 0 15.46 5.87 29.54 15.51 40.15v.02s4.06 4.05 4.06 4.05l.02.02 14.16 14.16 43.22-43.22c3.53-4.07 5.67-9.41 5.67-15.18z" fill="#009fe3"/></svg>